<svg id="eDfnsdx6Jre1" xmlns="http://www.w3.org/2000/svg" xmlns:xlink="http://www.w3.org/1999/xlink" viewBox="0 0 300 300" shape-rendering="geometricPrecision" text-rendering="geometricPrecision" project-id="c67094ad6d9b4346bc5bf6be0067d1d3" export-id="ac7225d5157f4bf0ad0c15e9a0c16769" cached="false"><g transform="translate(0 0.000001)"><path d="M23.53735,156.61566c11.99285-14.99107,29.4088-25.99669,42.30423-40.50405c7.39539-8.31981,14.67563-16.54436,21.60216-25.20252c1.06025-1.32531,2.18818-4.54181,3.60036-3.60036c3.39547,2.26365-1.77535,8.05115-3.60036,11.70117-7.51143,15.02285-47.496726,100.156399-32.473916,105.619239c24.84736,9.0354,42.470426-63.741179,8.171486-72.315909-9.52601-2.3815-45.09649,15.14055-37.80378,27.90279c2.86125,5.00718,55.91298.36311,57.60576-8.10081c2.65649-13.28247-19.80198-20.70207-17.10171,3.60036.663979,5.975813,17.10171,0,17.10171,0s14.48897-34.46955,25.20252-51.30513c1.96622-3.08977,6.30063-9.0009,6.30063-9.0009s-3.61823,6.59098-5.40054,9.90099c-9.07899,16.86098-24.40428,30.02513-26.10261,50.40504-.24337,2.92041,2.29323,4.98442,8.10081,4.50045c12.49404-1.04117,17.51359-17.51359,25.20252-25.20252c1.20012-1.20012-2.40024,2.40024-3.60036,3.60036-2.29479,2.29479-3.73084,5.31797-5.40054,8.10081-4.5911,7.65183-8.01636,24.21798,5.40054,10.80108c12.14464-12.14464,20.15622-26.99304,28.80288-41.40414c2.81992-4.69987,4.54664-10.43571,7.20072-15.30153c1.60628-2.94485,4.50045-12.35534,4.50045-9.0009c0,13.74546-36.87766,57.46739-30.60306,67.50675c5.00939,8.01503,17.29121-8.47304,19.80198-11.70117c2.14813-2.76188,7.87465-11.47501,5.40054-9.0009-3.47869,3.47869-20.71884,28.55588-8.10081,29.70297c9.56642.86967,20.58632-16.15497,25.20252-22.50225c3.85905-5.3062,4.57073-4.85802,8.10081-9.90099c1.00325-1.43321,2.70027-6.24991,2.70027-4.50045c0,17.83478-59.40594,64.80648-59.40594,64.80648-.22325.11162-14.119856,9.329379-14.809746,8.409519-.96943-1.29257-.92655-7.085879,0-8.409519c13.10181-18.71687,79.285986-45.49448,102.118476-53.10531c3.0656-1.02187,9.0009-.36894,9.0009-3.60036s-6.05912,2.26319-9.0009,3.60036c-4.76639,2.16654-35.58274,13.01044-28.80288,22.50225c4.31615,6.04261,21.17059-10.71749,24.30243-13.50135c2.42558-2.15607,8.64586-8.10081,5.40054-8.10081-3.19765,0-15.36121,19.08962-9.90099,22.50225c3.30954,2.06846,11.01922-2.02383,14.40144-2.70027" fill="none" stroke="#3f5787" stroke-width="4"/><path d="M124.94978,117.83925c9.12498,5.47498,20.23676,6.03642,30.64644,6.03642" fill="none" stroke="#3f5787" stroke-width="4"/></g></svg>
